<?xml version="1.0" encoding="utf-8"?>
<!-- Generator: Adobe Illustrator 16.0.3, SVG Export Plug-In . SVG Version: 6.00 Build 0)  -->
<!DOCTYPE svg PUBLIC "-//W3C//DTD SVG 1.1//EN" "http://www.w3.org/Graphics/SVG/1.1/DTD/svg11.dtd">
<svg version="1.1" xmlns="http://www.w3.org/2000/svg" xmlns:xlink="http://www.w3.org/1999/xlink" x="0px" y="0px"
	 width="348.949px" height="110px" viewBox="0 0 348.949 110" enable-background="new 0 0 348.949 110" xml:space="preserve">
<g id="Ebene_2">
	<rect fill="#FFFFFF" width="348.949" height="110"/>
</g>
<g id="Ebene_1">
	<g>
		<defs>
			<rect id="SVGID_1_" x="10.39" y="16.78" width="328.118" height="92.795"/>
		</defs>
		<clipPath id="SVGID_2_">
			<use xlink:href="#SVGID_1_"  overflow="visible"/>
		</clipPath>
		<path clip-path="url(#SVGID_2_)" fill="#8EBAE5" d="M261.97,86.192h4.445v-9.323h2.376c1.791,0,2.563,1.051,2.625,2.779
			l0.123,4.229c0.03,0.862,0.124,1.696,0.556,2.314h4.815v-0.185c-0.833-0.434-0.957-1.637-0.987-3.951
			c-0.063-4.662-0.525-6.329-3.55-6.73v-0.062c2.5-0.524,3.674-2.5,3.674-5.434c0-3.767-2.224-5.681-5.866-5.681h-8.211V86.192z
			 M266.415,67.424h2.099c2.006,0,3.088,1.019,3.088,3.057c0,2.376-1.205,3.302-3.335,3.302h-1.852V67.424z"/>
		<path clip-path="url(#SVGID_2_)" fill="#8EBAE5" d="M196.433,64.151v15.373c0,5.896,3.426,7.1,7.038,7.1
			c3.611,0,7.039-1.48,7.039-7.1V64.151h-4.445v15.373c0,2.192-0.524,3.828-2.594,3.828c-2.068,0-2.593-1.636-2.593-3.828V64.151
			H196.433z"/>
	</g>
	<polygon fill="#8EBAE5" points="211.598,64.151 211.598,86.192 215.673,86.192 215.673,70.759 215.733,70.759 221.167,86.192 
		226.229,86.192 226.229,64.151 222.154,64.151 222.154,79.246 222.094,79.246 216.722,64.151 	"/>
	<rect x="227.373" y="64.151" fill="#8EBAE5" width="4.445" height="22.041"/>
	<polygon fill="#8EBAE5" points="232.123,64.151 237.185,86.192 242.896,86.192 247.958,64.151 243.358,64.151 240.087,80.451 
		239.995,80.451 236.877,64.151 	"/>
	<polygon fill="#8EBAE5" points="248.354,64.151 248.354,86.192 260.98,86.192 260.98,82.551 252.799,82.551 252.799,76.622 
		260.209,76.622 260.209,72.98 252.799,72.98 252.799,67.794 260.671,67.794 260.671,64.151 	"/>
	<g>
		<defs>
			<rect id="SVGID_3_" x="10.39" y="16.78" width="328.118" height="92.795"/>
		</defs>
		<clipPath id="SVGID_4_">
			<use xlink:href="#SVGID_3_"  overflow="visible"/>
		</clipPath>
		<path clip-path="url(#SVGID_4_)" fill="#8EBAE5" d="M276.415,79.309v0.895c0,4.076,1.975,6.423,7.008,6.423
			c4.815,0,7.655-2.101,7.655-6.763c0-2.685-0.865-4.382-4.199-5.834l-3.426-1.48c-1.883-0.804-2.284-1.637-2.284-2.994
			c0-1.296,0.525-2.563,2.531-2.563c1.697,0,2.408,1.204,2.408,3.273h4.26v-0.618c0-4.229-2.872-5.927-6.823-5.927
			c-4.198,0-6.821,2.191-6.821,6.481c0,3.675,1.821,5.312,5.772,6.668c2.933,1.02,3.952,1.761,3.952,3.768
			c0,1.852-1.298,2.716-2.655,2.716c-2.347,0-2.933-1.327-2.933-3.396v-0.648H276.415z"/>
	</g>
	<rect x="291.658" y="64.151" fill="#8EBAE5" width="4.444" height="22.041"/>
	<polygon fill="#8EBAE5" points="319.192,64.151 316.105,72.672 316.044,72.672 313.143,64.151 296.687,64.151 296.687,67.794 
		301.502,67.794 301.502,86.192 305.947,86.192 305.947,67.794 309.696,67.794 313.852,77.519 313.852,86.192 318.298,86.192 
		318.298,77.519 324.009,64.151 	"/>
	<g>
		<defs>
			<rect id="SVGID_5_" x="10.39" y="16.78" width="328.118" height="92.795"/>
		</defs>
		<clipPath id="SVGID_6_">
			<use xlink:href="#SVGID_5_"  overflow="visible"/>
		</clipPath>
		<path clip-path="url(#SVGID_6_)" fill="#00549F" d="M157.383,62.146h-0.282h-7.084v-2.495v-19.48v-0.163h7.069h0.015h4.995
			c3.276-0.001,6.1,2.12,7.022,4.931c0.853,2.605,0.124,5.434-1.802,7.449c0.256,0.693,0.506,1.236,0.743,1.859
			c0.535,1.233,1.024,2.466,1.559,3.683l1.753,4.217h-0.045h-7.424c0,0.004-0.06-0.178-0.119-0.253
			c-0.297-0.651-0.565-1.351-0.861-2.004l-1.797-4.262c-0.713-1.722-1.426-3.35-2.138-5.072c0.889-0.024,1.554,0.143,2.412-0.252
			c0.604-0.297,1.518-1.035,1.542-2.449c-0.024-0.701-0.218-1.232-0.681-1.785c-0.466-0.513-1.139-0.894-2.016-0.906
			c0,0-2.862-0.001-2.861,0V62.146z"/>
		<path clip-path="url(#SVGID_6_)" fill="#00549F" d="M234.319,40.008v22.139h-5.751h-1.615V53.12h-0.688h-4.408h-0.062v9.027
			c-1.336,0-2.775-0.015-4.111,0h-3.254V45.13h-5.151v0.534v1.603v7.291v7.588h-0.06h-7.307V52.97v-0.356V45.13h-5.196v8.033v8.983
			h-7.587c-1.321-3.191-2.717-6.414-4.009-9.592c-0.149-0.668-0.297-1.337-0.49-1.99v11.582h-7.603
			c-1.507-3.504-2.955-6.938-4.457-10.494c-0.521-1.232-0.948-2.234-1.486-3.515l-0.074-0.168l-1.17-2.747l-1.676-3.923
			c-0.147-0.445-0.384-0.847-0.534-1.292h7.586c1.56,3.786,3.132,7.528,4.767,11.255l0.045,0.089
			c-0.06-0.431-0.194-0.98-0.269-1.395v-6.608c0.015-1.055,0-2.258,0-3.341h7.603c0.096,0.241,0.148,0.371,0.223,0.565
			c0.892,2.093,1.738,4.172,2.629,6.25l1.99,4.529c-0.045-0.476-0.149-0.935-0.209-1.395v-9.949h0.609h5.168h18.709h5.314v1.381
			v6.608h0.357h4.8v-7.989h3.842H234.319z"/>
	</g>
	<path fill="#8EBAE5" d="M255.685,53.805l2.14-9.954h0.062l2.141,9.954H255.685z M240.925,53.805l2.14-9.954h0.062l2.14,9.954
		H240.925z M260.615,40.005h-5.521l-4.62,17.452l-4.619-17.452h-5.521l-5.861,22.141h4.652l1.023-4.682h5.893l1.022,4.682h6.821
		l1.023-4.682h5.892l1.023,4.682h4.652L260.615,40.005z"/>
	<g>
		<defs>
			<rect id="SVGID_7_" x="10.39" y="16.78" width="328.118" height="92.795"/>
		</defs>
		<clipPath id="SVGID_8_">
			<use xlink:href="#SVGID_7_"  overflow="visible"/>
		</clipPath>
		<path clip-path="url(#SVGID_8_)" fill="#8EBAE5" d="M279.774,47.561c0-3.21-0.462-7.872-6.822-7.872
			c-6.667,0-7.502,4.754-7.502,11.453c0,6.698,0.835,11.452,7.502,11.452c5.834,0,7.007-4.105,7.007-8.859h-4.444
			c0,4.754-1.173,5.587-2.778,5.587c-1.914,0-2.84-1.204-2.84-7.872c0-6.235,0.525-8.488,2.778-8.488
			c2.006,0,2.654,1.389,2.654,4.599H279.774z"/>
	</g>
	<polygon fill="#8EBAE5" points="280.838,62.146 285.302,62.146 285.302,52.318 290.511,52.318 290.511,62.146 294.977,62.146 
		294.977,40.008 290.511,40.008 290.511,48.474 285.302,48.474 285.302,40.008 280.838,40.008 	"/>
	<polygon fill="#8EBAE5" points="295.944,40.004 295.944,62.146 308.63,62.146 308.63,58.488 300.41,58.488 300.41,52.533 
		307.854,52.533 307.854,48.873 300.41,48.873 300.41,43.663 308.318,43.663 308.318,40.004 	"/>
	<polygon fill="#8EBAE5" points="309.292,40.008 309.292,62.146 313.386,62.146 313.386,46.643 313.446,46.643 318.904,62.146 
		323.989,62.146 323.989,40.008 319.896,40.008 319.896,55.17 319.834,55.17 314.439,40.008 	"/>
	<rect x="135.007" y="39.978" fill="#00549F" width="1.023" height="46.398"/>
	<polygon fill="#00549F" points="95.297,55.826 120.563,55.826 121.019,55.826 121.019,62.747 104.75,62.747 104.75,67.992 
		119.422,67.992 119.422,68.892 119.422,69.701 119.422,70.43 119.422,71.126 119.422,71.833 119.422,72.563 119.422,73.373 
		119.422,74.272 104.75,74.272 104.75,79.438 121.019,79.438 121.019,86.347 120.563,86.347 95.297,86.347 	"/>
	<polygon fill="#00549F" points="59.658,55.826 72.062,55.826 76.851,74.398 81.617,55.826 93.975,55.826 93.975,86.347 
		86.28,86.347 86.28,63.077 80.305,86.347 73.328,86.347 67.377,63.077 67.377,86.347 59.658,86.347 	"/>
	<path fill="#00549F" d="M49.875,81.307h-11.96l-3.363,5.04h-9.634L47.8,55.825h10.284l0.057,30.521h-8.266V81.307z M49.875,74.706
		V63.738l-7.457,10.968H49.875z"/>
</g>
</svg>
